<?xml version="1.0" standalone="no"?>
<!DOCTYPE svg PUBLIC "-//W3C//DTD SVG 20010904//EN"
 "http://www.w3.org/TR/2001/REC-SVG-20010904/DTD/svg10.dtd">
<svg version="1.0" xmlns="http://www.w3.org/2000/svg"
 width="512.000000pt" height="512.000000pt" viewBox="0 0 512.000000 512.000000"
 preserveAspectRatio="xMidYMid meet">

<g transform="translate(0.000000,512.000000) scale(0.100000,-0.100000)"
fill="#000000" stroke="none">
<path d="M0 2560 l0 -2560 2560 0 2560 0 0 2560 0 2560 -2560 0 -2560 0 0
-2560z m3230 183 c30 -17 33 -22 75 -119 28 -65 105 -151 124 -139 7 3 10 1 9
-6 -5 -21 91 -51 162 -51 71 0 167 30 162 51 -1 7 2 9 9 6 14 -10 91 66 84 83
-2 7 -1 10 5 7 11 -7 34 36 50 95 6 25 21 55 33 68 l20 22 353 0 352 0 24 -29
25 -28 -5 -299 c-4 -329 -6 -337 -64 -349 -100 -22 -199 -101 -240 -193 -34
-73 -32 -199 4 -272 15 -30 35 -64 45 -76 38 -43 112 -91 159 -104 27 -7 59
-22 72 -33 22 -20 22 -22 22 -324 l0 -304 -25 -24 -24 -25 -339 0 c-325 0
-340 1 -365 20 -14 11 -29 35 -32 53 -12 55 -57 127 -108 173 -64 58 -162 90
-245 80 -119 -13 -225 -89 -272 -195 -34 -78 -44 -93 -70 -113 -24 -17 -81
-18 -1478 -18 -1394 -1 -1455 0 -1485 18 -53 31 -59 64 -55 357 4 306 2 301
99 336 80 29 167 108 200 181 34 75 33 202 -1 273 -32 65 -102 135 -165 163
-139 62 -135 50 -135 370 0 263 5 299 45 332 25 21 283 25 1738 28 1114 2
1211 1 1237 -15z m160 -218 c13 -14 21 -25 18 -25 -2 0 -15 11 -28 25 -13 14
-21 25 -18 25 2 0 15 -11 28 -25z m450 22 c0 -2 -12 -14 -27 -28 l-28 -24 24
28 c23 25 31 32 31 24z"/>
<path d="M585 2375 c-20 -19 -25 -34 -25 -77 0 -32 6 -62 16 -76 l15 -22 1204
0 1204 0 15 22 c24 34 21 133 -4 158 -20 20 -33 20 -1210 20 l-1191 0 -24 -25z"/>
<path d="M3583 2283 c-88 -4 -93 -5 -117 -34 -26 -30 -26 -32 -26 -208 l0
-178 26 -26 c31 -31 87 -42 187 -34 64 4 74 8 99 36 l28 31 0 181 0 181 -29
29 c-18 18 -38 28 -53 27 -13 -1 -64 -4 -115 -5z m-93 -27 c0 -2 -8 -10 -17
-17 -16 -13 -17 -12 -4 4 13 16 21 21 21 13z"/>
<path d="M904 1993 c-6 -5 -20 -26 -32 -48 -29 -57 -50 -72 -115 -80 -47 -5
-60 -11 -66 -28 -11 -30 -5 -45 41 -93 l39 -41 -7 -76 c-7 -74 -6 -76 18 -88
21 -9 33 -7 76 15 63 32 77 32 127 1 80 -49 118 -23 103 70 -6 40 -5 62 4 78
7 12 11 25 10 29 -1 3 6 12 16 20 16 12 16 11 2 -7 -8 -11 0 -7 18 10 26 23
32 36 30 59 -3 25 -9 32 -38 39 -109 26 -105 24 -136 84 -22 45 -35 59 -54 61
-14 1 -30 -1 -36 -5z"/>
<path d="M2682 1988 c-5 -7 -19 -32 -31 -56 -24 -47 -42 -58 -113 -67 -75 -10
-88 -55 -30 -106 l27 -24 -25 30 -25 30 27 -24 c15 -13 26 -26 25 -30 0 -3 4
-16 11 -29 10 -17 10 -36 2 -79 -13 -74 -14 -70 15 -89 23 -15 28 -14 81 10
69 32 72 32 125 1 86 -49 114 -29 104 72 -6 66 -6 69 24 97 17 16 28 33 25 37
-2 4 1 11 7 15 8 5 9 3 4 -7 -8 -12 -6 -12 8 0 21 17 22 54 2 71 -8 7 -41 17
-72 24 -58 11 -58 11 -91 74 -29 54 -37 62 -61 62 -16 0 -33 -6 -39 -12z"/>
<path d="M3483 1610 c-43 -26 -53 -67 -53 -225 0 -220 12 -238 162 -243 178
-7 188 6 188 242 0 178 -5 203 -50 229 -43 26 -204 24 -247 -3z"/>
<path d="M585 1275 c-33 -32 -36 -120 -6 -156 l19 -24 1197 0 1197 0 19 24
c30 36 27 124 -6 156 l-24 25 -1186 0 -1186 0 -24 -25z"/>
</g>
</svg>
