<?xml version="1.0" encoding="iso-8859-1"?>
<!-- Uploaded to: SVG Repo, www.svgrepo.com, Generator: SVG Repo Mixer Tools -->
<svg version="1.1" id="Layer_1" xmlns="http://www.w3.org/2000/svg" xmlns:xlink="http://www.w3.org/1999/xlink" 
	 viewBox="0 0 512 512" xml:space="preserve">
<circle style="fill:#C1321F;" cx="256" cy="256" r="256"/>
<g>
	<path style="fill:#84DBFF;" d="M322.129,109.515c-0.064-0.062-0.134-0.133-0.214-0.212
		C321.982,109.37,322.055,109.44,322.129,109.515z"/>
	<path style="fill:#84DBFF;" d="M322.239,109.623c-0.04-0.04-0.072-0.072-0.11-0.109
		C322.17,109.556,322.207,109.592,322.239,109.623z"/>
	<path style="fill:#84DBFF;" d="M322.37,109.756c0,0-0.053-0.053-0.133-0.131C322.286,109.671,322.32,109.706,322.37,109.756z"/>
	<path style="fill:#84DBFF;" d="M320.65,108.046C320.61,108.008,320.61,108.006,320.65,108.046L320.65,108.046z"/>
</g>
<path style="fill:#A82116;" d="M512,256c0-7.883-0.376-15.677-1.074-23.378L393.971,115.667l-26.852,22.032L334.021,104.6
	l-11.65,5.156l-15.126,11.66l47.156,47.156l-22.962,70.135l-69.046-69.477l-145.599,91.322l100.052,98.802l-74.623,49.028
	l103.39,103.389C249.06,511.91,252.518,512,256,512C397.384,512,512,397.384,512,256z"/>
<g>
	<path style="fill:#84DBFF;" d="M321.915,109.303c-0.253-0.252-0.476-0.474-0.648-0.643
		C321.484,108.875,321.715,109.104,321.915,109.303z"/>
	<path style="fill:#84DBFF;" d="M321.267,108.659c-0.284-0.281-0.529-0.526-0.617-0.612
		C320.715,108.11,320.896,108.291,321.267,108.659z"/>
</g>
<polygon style="fill:#FFD15D;" points="369.778,408.383 142.222,408.383 142.222,237.716 256,180.827 369.778,237.716 "/>
<polygon style="fill:#F9B54C;" points="369.778,237.716 256,180.827 256,408.383 369.778,408.383 "/>
<rect x="227.556" y="294.598" style="fill:#935635;" width="56.889" height="113.778"/>
<rect x="256" y="294.598" style="fill:#804000;" width="28.444" height="113.778"/>
<polygon style="fill:#F4E3C3;" points="358.572,205.614 358.572,155.831 318.923,155.831 318.923,185.789 256,154.327 
	102.143,231.255 116.793,260.553 256,190.948 395.207,260.553 409.857,231.255 "/>
<polygon style="fill:#FED8B2;" points="409.857,231.255 358.572,205.614 358.572,155.831 318.923,155.831 318.923,185.789 
	256,154.327 256,190.948 395.207,260.553 "/>
<path style="fill:#C1321F;" d="M231.865,247.38c0-6.665,5.403-12.067,12.067-12.067c6.665,0,12.067,5.403,12.067,12.067
	c0-6.665,5.403-12.067,12.067-12.067s12.067,5.403,12.067,12.067c0,11.54-24.135,25.341-24.135,25.341
	S231.865,259.568,231.865,247.38z"/>
<path style="fill:#A82116;" d="M280.135,247.38c0-6.665-5.403-12.067-12.067-12.067c-6.661,0-12.06,5.398-12.067,12.057v25.352
	C256.012,272.715,280.135,258.917,280.135,247.38z"/>
<path style="fill:#F4E3C3;" d="M299.098,109.22c0-4.998,4.053-9.051,9.051-9.051c4.998,0,9.051,4.053,9.051,9.051
	c0-4.998,4.053-9.051,9.051-9.051c4.998,0,9.051,4.053,9.051,9.051c0,8.654-18.101,19.006-18.101,19.006
	S299.098,118.362,299.098,109.22z"/>
<path style="fill:#FED8B2;" d="M346.505,125.231c0-7.14,5.789-12.929,12.929-12.929s12.929,5.789,12.929,12.929
	c0-7.14,5.789-12.929,12.929-12.929c7.14,0,12.929,5.789,12.929,12.929c0,12.364-25.859,27.152-25.859,27.152
	S346.505,138.29,346.505,125.231z"/>
</svg>